Coordinates
version=1
nRows=16
nColumns=36
inDegrees=yes

Units are S.I. units (second, meters, Newtons, ...)
If the header above contains a line with 'inDegrees', this indicates whether rotational values are in degrees (yes) or radians (no).

endheader
time	pelvis_tilt	pelvis_list	pelvis_rotation	pelvis_tx	pelvis_ty	pelvis_tz	hip_flexion_r	hip_adduction_r	hip_rotation_r	knee_angle_r	knee_angle_r_beta	ankle_angle_r	subtalar_angle_r	mtp_angle_r	hip_flexion_l	hip_adduction_l	hip_rotation_l	knee_angle_l	knee_angle_l_beta	ankle_angle_l	subtalar_angle_l	mtp_angle_l	lumbar_extension	lumbar_bending	lumbar_rotation	arm_flex_r	arm_add_r	arm_rot_r	elbow_flex_r	pro_sup_r	arm_flex_l	arm_add_l	arm_rot_l	elbow_flex_l	pro_sup_l
      3.14166670	    -17.63671745	     -0.65933140	      0.46471319	      0.09986279	      0.46756173	     -0.04384878	    117.58576459	    -27.59011347	     10.97428224	    125.35299000	      2.18782240	     32.22452047	     13.49395569	     -7.49999987	    119.34316025	    -22.23948428	     11.80837476	    126.28950802	      2.20416773	     20.61214663	      7.80235020	     -7.49999987	    -45.10966213	     -0.05248416	      1.94725095	     85.12304980	    -27.75959864	     36.55331544	     75.19010472	     88.77659125	    101.32090489	    -14.15556442	     53.96159693	     64.79972553	     76.88672834
      3.14583330	    -17.78173227	     -0.64137727	      0.32530986	      0.10326471	      0.46621699	     -0.04253193	    117.69635052	    -27.53455101	     11.20847473	    125.63243781	      2.19269969	     32.51697289	     13.79099376	     -7.49999987	    119.44984398	    -22.41753692	     12.09223339	    126.63463621	      2.21019135	     21.00169900	      8.37292011	     -7.49999987	    -44.96479736	     -0.14350337	      1.86152800	     85.92697469	    -27.28834226	     37.39314493	     75.31950596	     89.88491938	    101.55326206	    -13.76507451	     53.84108667	     65.48254215	     77.90690614
      3.15000000	    -17.91079298	     -0.58299716	      0.29139241	      0.10698502	      0.46521474	     -0.03930967	    117.80812111	    -27.43003297	     11.41695653	    126.02513468	      2.19955354	     32.77755514	     13.99475892	     -7.49999987	    119.51846720	    -22.58220656	     12.43672534	    126.95286353	      2.21574546	     21.29634006	      8.83721488	     -7.49999987	    -44.78530501	     -0.33874751	      1.71983263	     86.44312485	    -26.82283060	     38.12094609	     75.34998498	     88.25848326	    101.96583029	    -13.42604100	     54.37398059	     65.87344254	     77.16001512
      3.15416670	    -18.12702224	     -0.50268908	      0.24534345	      0.10934959	      0.46619588	     -0.04463184	    117.84911204	    -27.28460760	     11.62721774	    126.16415284	      2.20197987	     33.05697953	     13.71700842	     -7.49999987	    119.53434709	    -22.73685846	     12.41821968	    127.21145039	      2.22025866	     21.60594893	      9.34027141	     -7.49999987	    -44.56335651	     -0.45282864	      1.61217140	     86.80511753	    -26.51988929	     38.50910046	     75.75186753	     87.60165935	    102.20519980	    -13.15374033	     54.79602622	     66.86749579	     76.95661584
      3.15833330	    -18.16604689	     -0.58795153	      0.36536170	      0.11272244	      0.46325302	     -0.04502864	    117.88298551	    -27.55485874	     11.94142801	    126.54063915	      2.20855079	     33.39845401	     13.92486892	     -7.49999987	    119.54870216	    -22.58970714	     12.65180494	    127.65913219	      2.22807218	     22.09290724	      9.67744151	     -7.49999987	    -44.37672162	     -0.28891176	      1.55837607	     87.17640489	    -26.17849614	     38.41091025	     76.01264961	     90.62141910	    102.21207464	    -12.72763513	     54.87730045	     67.52329824	     79.34409863
      3.16250000	    -18.17360196	     -0.68175670	      0.55322422	      0.11618874	      0.46205915	     -0.04531998	    117.88969962	    -27.78664934	     12.32537278	    126.96925685	      2.21603158	     33.61300899	     14.00115490	     -7.49999987	    119.57608537	    -22.39541880	     12.84334288	    128.14992735	      2.23663817	     22.63487715	     10.09197074	     -7.49999987	    -44.18100038	     -0.03279372	      1.45031130	     87.78956660	    -25.90395558	     39.31998263	     76.09852789	     85.91228145	    102.31449250	    -12.45426861	     55.61493640	     68.17346133	     76.42898511
      3.16666670	    -18.06076345	     -0.75120931	      0.75028998	      0.11192440	      0.45932526	     -0.03929377	    117.89543197	    -27.69281426	     12.54785267	    127.42187022	      2.22393117	     33.86790596	     13.77347419	     -7.49999987	    119.60895837	    -22.20798702	     13.19084851	    128.29308781	      2.23913679	     22.76317847	     10.13113239	     -7.49999987	    -44.10551848	     -0.03528769	      1.30368073	     88.27586984	    -25.53428789	     39.27282093	     76.31951970	     86.00196362	    102.63490322	    -11.90999709	     55.67561834	     68.37905974	     76.50502000
      3.17083330	    -17.89404107	     -0.89450597	      0.95337217	      0.11582662	      0.45984379	     -0.03892253	    117.63638165	    -27.52032274	     12.58766286	    127.84278188	      2.23127747	     34.12808352	     13.65439911	     -7.49999987	    119.62731490	    -22.04668818	     13.67623169	    128.39862917	      2.24097883	     22.88493151	     10.43270263	     -7.49999987	    -44.27285966	     -0.04505406	      1.26550342	     88.72971633	    -25.52807836	     38.90661707	     77.29129041	     90.92901255	    103.46808434	    -11.46056970	     56.39679887	     68.67405796	     80.07998999
      3.17500000	    -17.91122596	     -1.09343641	      1.04367154	      0.12080089	      0.46160748	     -0.04305292	    117.34951362	    -27.39382522	     12.56240361	    128.06988750	      2.23524121	     34.43090790	     13.42673926	     -7.49999987	    119.64825362	    -21.85060786	     13.94651870	    128.49333697	      2.24263180	     23.16674279	     10.44262415	     -7.49999987	    -44.02909162	      0.20179420	      1.31402884	     89.22667469	    -25.20861790	     39.51845829	     77.50397221	     89.25834370	    103.57668843	    -11.06570279	     56.68196294	     68.94474202	     79.08524513
      3.17916670	    -18.22278242	     -1.34722148	      1.06750199	      0.12064456	      0.46546683	     -0.04009547	    117.00374665	    -27.05919932	     12.15053158	    127.85945640	      2.23156849	     34.51821981	     12.87153361	     -7.49999987	    119.63105940	    -21.78785354	     14.10814827	    128.14971361	      2.23663444	     23.16671883	     10.36105370	     -7.49999987	    -43.67389609	      0.33447816	      1.36725635	     89.35404637	    -24.94935325	     39.58315443	     78.26859009	     88.89826228	    103.65595012	    -10.76158018	     56.82994253	     69.37771834	     78.96807903
      3.18333330	    -18.44273440	     -1.65379114	      1.05854765	      0.13167778	      0.46563816	     -0.05283842	    116.36797723	    -27.32139823	     12.10717492	    127.67511383	      2.22835111	     34.79668157	     12.78634327	     -7.49999987	    119.63692631	    -21.50913306	     14.17402195	    128.51204146	      2.24295825	     23.84654816	     10.54533338	     -7.49999987	    -43.01188874	      0.99062029	      1.55997342	     89.28681799	    -24.62155459	     39.86151681	     78.66224777	     88.59680865	    103.07302397	    -10.47513488	     56.97578710	     69.56732164	     78.79436261
      3.18750000	    -18.83124676	     -1.93048411	      1.08173551	      0.13919899	      0.46494730	     -0.05647224	    115.96728326	    -27.94347993	     12.44722466	    127.64001965	      2.22773860	     35.31254740	     13.52802233	     -7.49999987	    119.63395658	    -21.17756391	     14.15675332	    129.06640933	      2.25263380	     24.80596066	     10.40002422	     -7.49999987	    -42.05411884	      1.78636482	      1.82383500	     89.02661823	    -24.73051182	     40.64598423	     79.88841799	     88.48525201	    101.33311990	    -10.00496954	     55.05962395	     70.56272402	     78.75854707
      3.19166670	    -19.25075231	     -2.24917309	      0.96986843	      0.14210047	      0.46636676	     -0.05543325	    115.35961252	    -28.27019594	     12.39178338	    127.42211654	      2.22393547	     35.88990675	     14.17592766	     -7.49999987	    119.61765366	    -21.01976330	     14.32068467	    129.42308144	      2.25885890	     25.61464884	     10.55819804	     -7.49999987	    -41.00707001	      2.50974322	      2.02250985	     88.58792028	    -24.17805993	     40.81415920	     80.57851744	     93.34473657	     99.76037853	     -9.78462755	     53.53143244	     71.51601006	     83.91127252
      3.19583330	    -19.77408725	     -2.45171797	      0.75006029	      0.14510908	      0.46685513	     -0.05800161	    114.92296797	    -28.48097079	     12.28230505	    127.15580217	      2.21928741	     36.63572410	     14.62269048	     -7.49999987	    119.58164816	    -20.92615587	     14.44004541	    129.67518129	      2.26325887	     26.26252021	     10.35902814	     -7.49999987	    -39.85072711	      3.02046423	      2.27127074	     88.01394288	    -23.76685256	     41.36710604	     81.89653723	     93.90625809	     98.43796764	     -9.58039773	     52.62183447	     72.38282191	     84.90224712
      3.20000000	    -20.24301703	     -2.70157281	      0.40437410	      0.14706375	      0.47041233	     -0.06035505	    114.23350446	    -28.58726842	     11.68176233	    126.64291979	      2.21033592	     37.27478858	     14.73678486	     -7.49999987	    119.48752761	    -20.83522595	     14.59094787	    129.70960900	      2.26385975	     26.69514806	     10.00106924	     -7.49999987	    -38.91932933	      3.49975784	      2.55999193	     87.56288142	    -23.17969971	     42.33761651	     83.15533327	     94.32978890	     97.21187254	     -9.44888289	     51.99150771	     73.38884948	     85.64135559
      3.20416670	    -20.46432184	     -2.88838688	      0.08818233	      0.14926311	      0.46935386	     -0.06372515	    113.84764439	    -28.70735043	     11.40689735	    126.29197290	      2.20421075	     37.75769206	     15.02948072	     -7.49999987	    119.32891023	    -20.68756084	     14.72794809	    129.91464289	      2.26743826	     27.24959824	      9.71770067	     -7.49999987	    -38.17192193	      4.11752783	      2.78890638	     87.99745477	    -22.50262220	     43.79660879	     83.71988652	     94.02508927	     96.20842109	     -9.46890735	     50.88512601	     74.35250428	     85.57350782
